PathFileType	3	(X/Y/Z)	results
DataRate	CameraRate	NumFrames	NumMarkers	Units	OrigDataRate	OrigDataStartFrame	OrigNumFrames
30.0	30.0	4	85	mm	30.0	180	239
Frame#	Time	head			nose			neck			shoulder_r			elbow_r			wrist_r			shoulder_l			elbow_l			wrist_l			hip_r			knee_r			ankle_r			hip_l			knee_l			ankle_l			heel_r			heel_l			mtoe_r			ltoe_r			mtoe_l			ltoe_l			asis_l			asis_r			psi_r			psi_l			mhnd_r			lhnd_r			mhnd_l			lhnd_l			l_lat_knee			r_med_wrist			l_lat_ankle			r_med_ankle			r_lat_knee			xiphoid			l_med_ankle			r_med_knee			l_med_elbow			navel			r_lat_elbow			r_lat_wrist			l_med_wrist			l_lat_elbow			l_med_knee			r_med_elbow			r_lat_ankle			l_lat_wrist			chin			T10			r_eye			l_eye			l_ear			r_ear			spinal_cord_8			spinal_cord_12			spinal_cord_27			spinal_cord_33			up_arm_r_0			up_arm_r_5			up_arm_l_0			up_arm_l_5			front_torso_11			front_torso_7			front_torso_4			front_torso_1			front_torso_10			thigh_r_2			thigh_r_3			thigh_l_1			thigh_l_5			shank_l_0			shank_l_4			shank_r_1			shank_r_2			foot_r_1			foot_r_3			foot_r_5			foot_r_6			foot_r_7			foot_l_1			foot_l_7			foot_l_0			foot_l_4			foot_l_5			foot_l_6			
		X1	Y1	Z1	X2	Y2	Z2	X3	Y3	Z3	X4	Y4	Z4	X5	Y5	Z5	X6	Y6	Z6	X7	Y7	Z7	X8	Y8	Z8	X9	Y9	Z9	X10	Y10	Z10	X11	Y11	Z11	X12	Y12	Z12	X13	Y13	Z13	X14	Y14	Z14	X15	Y15	Z15	X16	Y16	Z16	X17	Y17	Z17	X18	Y18	Z18	X19	Y19	Z19	X20	Y20	Z20	X21	Y21	Z21	X22	Y22	Z22	X23	Y23	Z23	X24	Y24	Z24	X25	Y25	Z25	X26	Y26	Z26	X27	Y27	Z27	X28	Y28	Z28	X29	Y29	Z29	X30	Y30	Z30	X31	Y31	Z31	X32	Y32	Z32	X33	Y33	Z33	X34	Y34	Z34	X35	Y35	Z35	X36	Y36	Z36	X37	Y37	Z37	X38	Y38	Z38	X39	Y39	Z39	X40	Y40	Z40	X41	Y41	Z41	X42	Y42	Z42	X43	Y43	Z43	X44	Y44	Z44	X45	Y45	Z45	X46	Y46	Z46	X47	Y47	Z47	X48	Y48	Z48	X49	Y49	Z49	X50	Y50	Z50	X51	Y51	Z51	X52	Y52	Z52	X53	Y53	Z53	X54	Y54	Z54	X55	Y55	Z55	X56	Y56	Z56	X57	Y57	Z57	X58	Y58	Z58	X59	Y59	Z59	X60	Y60	Z60	X61	Y61	Z61	X62	Y62	Z62	X63	Y63	Z63	X64	Y64	Z64	X65	Y65	Z65	X66	Y66	Z66	X67	Y67	Z67	X68	Y68	Z68	X69	Y69	Z69	X70	Y70	Z70	X71	Y71	Z71	X72	Y72	Z72	X73	Y73	Z73	X74	Y74	Z74	X75	Y75	Z75	X76	Y76	Z76	X77	Y77	Z77	X78	Y78	Z78	X79	Y79	Z79	X80	Y80	Z80	X81	Y81	Z81	X82	Y82	Z82	X83	Y83	Z83	X84	Y84	Z84	X85	Y85	Z85	
180	6.0	98.7748379457098	1371.823954823329	-600.7603572743126	95.39091837498125	1195.8054339399912	-708.9738578701746	94.63862121690624	1081.2610551750572	-537.113535745289	245.56004336444772	1039.5272390907169	-589.390175498136	371.0256260496612	868.9047248343975	-744.0108299592385	196.75325694140497	969.0816846756414	-842.6661160649583	-70.46017341944524	1026.9857401190882	-540.0735293762658	-193.01107662680081	899.896924478536	-750.4852463393113	18.89137172974828	963.4489963777636	-830.7194838570445	200.52128722396785	660.7471825550322	-256.5786244400833	302.0055574722159	447.16548964384737	-572.6063490239552	308.42679194614635	105.23126516788383	-385.86669207220257	-9.922419406292432	648.5383522646056	-238.07130120411253	-125.2216724975071	436.5974750991304	-567.297007269911	-120.78606463280303	101.89289230169562	-370.05601624182873	303.99154438596247	51.11323833350915	-352.751108427364	-125.0916182653272	41.31650061328547	-326.67526018543276	323.8985259564656	43.18179737760486	-578.8203822923339	382.54602514968303	29.908453267608905	-511.9103654600228	-106.99878058177717	49.04937778428633	-553.8269005257979	-186.54052441490586	23.70627927694788	-501.32025386452284	-64.77371481007368	663.2752744501671	-314.4965270792003	243.7830152070134	681.3194012325721	-336.67617913114947	141.73138686504007	793.951852762119	-231.38572673972686	36.643006679452114	783.1791709942505	-226.60542728074108	145.75712823855812	978.0794152012793	-894.6288284380965	133.07614984361615	1022.6441294056308	-867.7546532958169	77.19310160039554	966.5934811123328	-879.7667805266299	99.42870365266099	997.7182380633955	-842.4495615812419	-169.079375369163	450.337506089644	-547.4202696962873	208.63604492828406	951.8409140300183	-861.5129488683519	-171.92872072904942	95.13048914127815	-350.7897390344924	279.01468093353077	85.61421423012722	-400.96899534983413	342.62882252871816	445.4913726902613	-559.9875824357372	101.16579581593402	890.8256522209803	-523.3575432202516	-93.27794292167701	82.76585410737769	-380.5765868764095	261.0810699536482	444.0311089485036	-580.141442304769	-187.28179469522834	872.3554227480465	-725.2833468559196	97.44937162973626	702.759895073927	-417.39747640937054	389.00709864030733	902.7773532830724	-755.7034234342924	193.28103528781762	976.6248128600719	-812.7298293582134	0.12937299026102855	956.2350057218836	-856.5622126357882	-201.42263042972334	940.5722963919233	-755.1826246552163	-75.66213583082288	447.1117979570007	-572.0536286170917	349.2352299377181	845.4422512342846	-725.5563519759414	355.0132459665237	94.73166871972577	-368.5282770858676	17.252619773474503	976.8089180528262	-802.2254346110187	99.44837845301258	1123.5701516587162	-685.8387369240272	87.79382249960024	1005.5124377489064	-369.21349950407665	126.32451847890196	1227.3838009930112	-712.3350924767731	59.41726720850189	1224.9941181674642	-708.0829783347377	14.873764879937385	1224.3852138576385	-605.9633441000826	181.0852021588632	1227.4474154485274	-613.8431334730734	91.66326870631852	1156.2520182531205	-529.0400322256077	86.25833975898914	1087.6873178901985	-423.48121033755757	99.76859985228326	872.720819526908	-299.58911384267896	88.49141738753738	990.5720434513172	-374.68433073294585	284.51895476211115	971.6265816660267	-702.4974317924155	351.19773383197327	936.7590445190899	-655.7649138291	-107.62728825886079	1027.9045113323086	-591.2940069323536	-168.1894751230868	901.4018888791522	-665.9324201323096	144.1757421551607	748.410054383298	-396.89342907736585	103.59024782000272	802.8937784237388	-501.41196696975476	36.107476275702126	922.9157646259441	-556.7893812314369	24.846836659219523	770.1411774800167	-426.24373924062627	184.2712135499784	956.9345386958772	-576.0550761299585	237.2745748397875	544.4599437881338	-428.4670823715805	337.90572636160397	529.9032021683031	-430.84614541975463	-43.0344030491632	490.2606722033301	-470.85057645583163	-134.90046600422352	629.0656632168955	-315.1576073974665	-190.0098718932462	183.39903196726704	-415.2072370679138	-76.6958545517584	300.98328011415	-502.7723986165392	360.584267715019	310.0844683250188	-477.0795368541939	268.2189526669281	260.3254077748547	-489.2197576840965	344.11881723307874	32.82610053973424	-558.356953078876	366.600284890782	31.376425806649177	-539.0322057088284	304.52577330441517	55.72885792611358	-497.19787531376545	340.6729072217341	57.45601835350867	-479.87257187290663	368.4343137499641	39.81856884404744	-464.72726104280946	-155.43141483498908	29.302236849910944	-530.2113936937577	-181.3110545311536	53.64592904417043	-424.33788154051416	-170.55674254344618	27.100488669855192	-522.8918426659396	-136.86970473628546	31.95488684618588	-538.5546050597574	-147.89373243470385	44.87273986084897	-479.6333292758629	-120.03652681623996	59.80778657448053	-448.15311648774826	
181	6.033333333333333	97.85078892535198	1340.2729669600697	-613.1857773896304	96.62544568254837	1161.186041200137	-716.2901122772743	92.67481794954507	1054.2510142417862	-544.1302274970076	242.53442083636605	1014.6823547348207	-596.6929438677579	361.5313889060541	841.7398438833958	-753.8292258852922	192.80794964053916	950.8944733915847	-852.6058187278579	-68.13861549621647	994.3462980066743	-546.128040089005	-190.93545098022287	870.7012250950636	-758.4396382483849	18.364619446635505	938.3394467897074	-842.0912838839307	201.4338761624074	643.3234340280898	-253.39278763153234	305.51551472254744	445.25379015447305	-579.6495494425025	308.82237827326503	106.4297459870973	-387.24560627571833	-8.672207068843987	628.6313103344446	-232.95494280148023	-130.33374427794897	434.3025327634092	-572.003907309364	-121.66467968181692	102.14196471642506	-370.6459045922951	303.9516496569166	52.83712475160549	-353.3191521861076	-125.25163388836485	41.86941890060854	-326.679907865199	324.0958898639956	41.70780080590329	-579.232542651815	382.4586427589729	28.522765969250248	-512.056616094327	-107.75911739079986	48.570667056009526	-553.9113339792948	-187.0004742061774	22.956980127537253	-501.082781003012	-64.31479678983334	641.1324901483496	-309.20636472551007	243.78362037608582	662.9142194605055	-334.2204552216648	141.0250014970373	776.1861280141957	-230.31268684860555	36.13439015355605	764.087739572324	-224.47674352122718	142.84371104368518	962.9329936864461	-904.954043769493	131.74880213754912	1007.5332612014734	-877.444747364478	75.48269228643045	943.1906711024584	-892.3765518904297	98.23672829710297	973.7564207004303	-854.91008527765	-173.51012105900483	448.57055790675656	-550.3157530940517	204.16834121408223	933.4870311060415	-871.620822958371	-172.7274623407364	94.95116882649984	-351.3229781030113	279.53515781144756	86.64105606858446	-402.3666841120492	345.94616069184246	444.16922265163794	-566.5068415704202	99.94350681896596	864.3334770671638	-524.7403004078656	-93.90265940174461	83.24706774479324	-380.9160484587897	264.41928698553244	442.73945474351785	-586.7471729724796	-184.53377268935074	842.6290737417163	-733.9964886958433	96.87537640795779	679.4716208895366	-413.26493413829104	381.07812018102805	875.0064186226704	-764.7225889244655	189.311265926755	958.0685644935253	-822.5817952187806	-0.9095882307028069	931.4705229553994	-867.649525067249	-200.00424699465276	911.3482440240814	-762.0288264222341	-80.3720741240571	445.22128008036685	-575.9687209306768	338.5869753043297	818.9071855913672	-735.9938568793018	355.17437436166426	96.09926798557822	-369.19197669919225	17.239698328893688	951.0660856576001	-813.2841480808344	99.32872005312852	1089.6329927250383	-690.9427974030962	85.97720790521818	983.4763028959071	-374.0678603052745	127.90840207185089	1192.4307017436897	-719.534585465372	60.879858851291516	1190.6443035388777	-717.4478400502569	12.975418491138688	1193.347636153104	-616.8955121461726	179.37600215817938	1194.9911358079225	-619.3151620433695	89.39519155841417	1129.435556943389	-538.2815255465351	84.16573374956498	1064.002896978296	-430.74448052439425	98.41434605831085	852.8514672631586	-300.5353222566754	86.73893759993044	968.3834895681529	-379.09367053404765	279.32439147536564	947.355000712917	-710.8641878095084	344.0412911356316	908.6618649576795	-664.3851914356416	-105.84222395667057	995.9778371765086	-596.9370144547636	-165.26749303700657	870.4710082392317	-674.126767499772	143.4019329306757	725.8942636086565	-394.0835763773153	102.69615826277403	777.0997282341627	-500.200604229017	34.78908223154682	895.1609284412027	-559.1585694932197	24.01467511031771	746.2718282752646	-424.1586097601258	182.83442367475806	929.1849873406036	-579.304966818745	239.48852064039457	535.6590773158439	-430.53509863616245	340.27719028083885	522.3636764737167	-433.5456986987799	-46.209937239256945	482.74954646641567	-473.0462759175815	-134.60181513188297	614.8851431003734	-309.7258556017153	-191.91548851263155	182.17530477023013	-416.8336451231854	-80.08651564163104	300.1387869227788	-505.78687530868217	362.600389136343	309.61821220943546	-481.19981276679016	270.24761226547156	259.90028674407364	-493.60114270460633	344.14477331708565	31.34973889069988	-558.6023367117768	366.57534836229377	29.851218605853663	-539.2222555486483	304.76794389718117	55.57032024830025	-497.81247768865626	340.90844276471483	57.03985452706247	-480.44960570543515	368.4085939711659	39.23169792054159	-465.029910518284	-155.99972942176925	28.61647998530861	-530.0778372164073	-181.78855708859038	53.32195835696863	-424.2659882479972	-171.09210109185304	26.3496483554358	-522.7102831908645	-137.47658773792827	31.352248942179965	-538.4797179620361	-148.44589308280783	44.49432808112289	-479.59782813704635	-120.6147777941077	59.77722413027001	-448.2618195761151	
182	6.066666666666666	96.98515789659022	1309.1223822721872	-627.0004894595655	98.53449379272114	1126.5141116702757	-723.72665646152	91.12668416627668	1027.7577062090545	-550.4430084383929	242.94345850277523	983.9303111403883	-600.3742765731024	354.6907890121584	815.0100239600017	-766.9265875705491	188.5478937699843	933.2246415717304	-859.4522053080204	-66.84681552192956	966.172155985722	-554.1454887725433	-187.74644965213537	840.8124663544634	-766.5404234012453	17.717807776130634	915.1721242058582	-853.913912148756	203.62245158749667	626.8080326700898	-250.49115859911274	307.67935837701094	443.5807692687077	-586.4029753850905	309.1991907388348	107.75888071143669	-388.7839103280324	-6.084789680453645	608.5188028660817	-228.89237984507028	-135.22836750209763	433.0200821514146	-576.7795144080095	-121.05643690654674	103.31298562250151	-371.7350612127496	304.17280793736126	54.62434622942427	-354.1532674803925	-123.57205827709987	43.417802337926275	-327.2030164089887	323.82484828194305	40.880664787191336	-579.9660677983316	382.009346943062	27.254996177108172	-512.7234737937619	-108.33079271507013	47.91025431557698	-554.6508952151008	-187.2316413781857	23.409606705286443	-500.794754019354	-62.29888753786475	619.2349567281796	-304.9962291663471	245.23337524735626	646.341712065269	-331.7154034915312	140.91718821753196	758.7815386107865	-228.45794913802163	36.29196614169663	744.8440802325287	-221.99422382234647	138.59549783689855	948.9887266337563	-910.8130808570633	128.99862629290982	992.6393355028708	-881.2907730768407	73.62174412923994	922.0597255353239	-905.3135974484155	96.2385233956866	953.0134238651377	-868.0832713817914	-177.5810837979078	447.76105003221255	-553.0177604785449	199.2631449450774	916.3484754458175	-879.3023019994833	-172.34712917686218	94.64522738157544	-353.6622733807205	280.3751198514783	87.53410394999544	-404.214784199367	347.9963013618311	443.0801086000235	-572.9610835241817	98.41097472001964	838.4807768317337	-525.5701888656528	-92.43657742877589	85.23670891517848	-381.0825004616117	266.351090402799	441.68665969730984	-592.7212509190088	-180.18743196803834	812.7108172227362	-742.4644334045331	95.99031022739814	656.9520234939705	-408.73043247407065	375.1410043211611	848.1378743925447	-776.5046498097237	185.4701076296355	939.1709518976264	-829.1156762747042	-1.8694552569511746	907.9217950506912	-879.1264634403244	-198.1643563019003	881.1781826293492	-769.6033715507846	-84.83283785181439	444.4232724641628	-580.0475648150727	331.2493221573352	792.0770157545738	-749.8839482757867	355.22617379993	98.03493763190335	-369.5974145749012	16.814526762621824	927.6543538725663	-824.9922613741006	100.59791301979625	1055.9016649293226	-695.8114728496835	85.54653059048265	961.9795137063757	-378.3464722780004	129.88020625139595	1157.6657082540241	-727.2484628086407	62.820651153691095	1155.8669096900733	-726.858943786925	12.291271829324435	1162.0475063758595	-627.7554821416575	178.69738819963126	1163.8207491143498	-625.8660149642393	87.93320265301071	1103.083506874441	-546.7682084488767	83.39768655445951	1040.819955267752	-437.3347788845202	98.40508692226452	833.5452407550922	-301.1204449172202	86.264675359682	946.745900211964	-382.9348600910822	276.3136815296151	920.9552224939259	-718.0267899654016	340.3159408936635	878.1528186125123	-674.2386868048222	-105.10355817158518	967.1047113174001	-604.5570734480285	-161.21957170125634	840.5408159998328	-682.4939589252679	142.67518853279577	703.8766286413254	-391.2287104496999	101.27751029994202	751.9977978112918	-498.5150964152613	33.042084089775685	868.3440231310348	-560.429085959605	23.097968250358285	723.4652094756245	-421.07240316704247	180.96732628271823	901.6455845467557	-582.566514935417	241.55122519692353	527.4093865458249	-432.42654631084105	342.44666706474857	515.3122297945606	-436.66399047119995	-48.82208113598684	476.000087043659	-475.7662997493032	-133.1593238755234	600.6363791522008	-304.59526293560964	-192.6348365262574	180.54775546767198	-420.5729775457081	-82.40357940638788	301.2285304954254	-507.85986056856325	363.57957958950294	309.8704691513973	-484.69376019898516	271.85127009703564	259.3130144621938	-498.27910176885683	343.69889553814636	30.3483766356179	-559.2550629112291	366.12077657957485	28.616016309895098	-539.8844154244218	304.863404103292	55.912271889318646	-498.66735721950926	341.0465716963845	56.86703773700908	-481.35749534823333	368.22277820882596	38.69335676162832	-465.7906434775785	-156.48276553980025	28.558150995922126	-530.1509889109234	-181.00313927164063	54.43043054263054	-424.316457215342	-171.5170583958967	26.478584851163735	-522.611459512338	-138.02477981223944	31.0699210873244	-538.7635717742635	-148.2932598284984	44.83445356589257	-479.8975134978014	-120.02679978948906	60.18028056447414	-448.9847951931067	
183	6.1	97.4949792097646	1278.349596299428	-641.0444076527868	100.35869550798252	1092.511825071128	-731.3785331574435	89.81270967178187	1003.3136695029837	-555.0539860336913	249.6774745409463	959.138449760312	-607.0825099214111	354.32732118349986	788.0874484751919	-776.0534131938846	186.56081789886926	908.5049352415585	-862.616549982935	-67.48318920274315	941.2425056078714	-562.3220859499768	-183.5657171220363	813.6606886356149	-776.0768713072124	19.469660752082756	894.2763456071092	-863.5799999073068	206.62278392338052	610.4857691800822	-246.2820019273595	307.4009299488596	441.71717659423064	-591.7409791631934	309.51572722767156	108.36726932148949	-389.9854029023863	-2.8112215313318285	589.4301388462235	-224.55211464869117	-138.35775217317752	432.7825855460159	-580.1254255121719	-119.32616630379583	104.52937471873558	-373.15086372896246	304.6188704469311	55.53836497998464	-354.78672268400555	-120.87167671078146	44.84551696216593	-328.2651541803592	325.08310618297577	40.282013256704936	-580.4301826923897	383.1474431788997	27.555788071749326	-512.9080593568005	-108.86755561005037	48.43835829969462	-555.9228104140689	-186.9335954362452	23.961061737650496	-500.8531728953017	-59.01896237351101	597.086707627514	-301.02906187431046	248.09685133064875	628.3899494274551	-327.95056147906723	141.75332124847495	741.9987729511809	-228.09680753455513	37.351542686137265	726.5620472180924	-221.4300454207527	134.98495978714465	924.9098264340374	-912.1392536597841	127.07992387793216	968.7188021921105	-882.3512308141997	75.03070397516589	902.992529418278	-915.0738385337172	96.83691957103858	934.4204408513978	-877.7573184917069	-179.95355147688414	447.7794583393394	-554.5020745159537	196.3078396396363	891.4619068482755	-882.8199823617647	-170.36992435033093	95.51300955124698	-354.5570279179696	280.81858429985715	87.84523202111106	-405.2595804195226	347.7127771257616	441.80815392399376	-578.288156979655	98.3152984997524	814.5905632738013	-526.6151183468792	-90.62872891412933	86.65371365888974	-382.6451033287361	265.7883885746769	440.41913232344643	-596.8572594723721	-175.25006262838417	785.6432136813327	-752.1527054049002	97.39669514697968	635.3068989298099	-406.3379366129199	374.84837115944214	820.9278059900546	-786.4362106446627	184.67799313755148	914.5235772296645	-832.1966997639746	0.039128231731466734	886.5763216887178	-888.7804944708491	-195.20545959481873	853.7073382993589	-778.9207641658185	-87.548421737371	444.5429483553298	-582.6943643943749	331.1618334760189	765.5139832098281	-758.1739380065263	355.5146675167601	99.05420303955425	-370.5297058777506	18.276630278009826	906.6009030778101	-834.6012867023996	102.25632829212698	1022.9105590868355	-701.0190935556735	85.24221464604399	940.790441207602	-381.7188107806645	131.68505025495935	1123.5885266096866	-735.6536821554354	64.6282635639538	1121.6642157765548	-735.8897282071598	13.068375318450787	1131.1598997537117	-637.5824346308931	179.442814903572	1133.3448943959197	-634.04949072777	86.18306235731639	1078.6756165697916	-552.7998077594118	82.41152554830123	1018.4800787738775	-442.1866574980847	99.14364339098562	813.9270151688846	-302.1136246810227	86.03477887696984	925.4767736876889	-386.0194437293478	278.69843322497206	895.1786696783623	-725.3554061036923	343.5261260927546	851.8676646784598	-683.3166139770032	-105.53461965645694	941.3390700910924	-612.8973289333674	-157.4026296389207	813.6388689485443	-691.9160157037917	143.86322820951244	682.830534971665	-389.90406832352693	101.79476023624176	728.6564816785781	-497.93188839643165	32.64482740301719	843.3990697403154	-561.7933393006161	24.065025426898355	701.1421787726208	-419.67224623125566	180.28842146331365	877.1450957984722	-585.1066807699433	242.66590022867504	519.1373893886326	-432.763999174142	343.59303466778425	508.2410769069314	-439.02269172064024	-50.00730547447901	470.2651289519845	-477.3497580918177	-130.76497804084664	587.1705347312973	-299.1425077101744	-192.04462020742017	180.8006724809245	-421.8184570168833	-83.71250646765853	301.91597153887017	-510.8634845150617	363.4609144142962	309.483455246177	-488.20564885020036	271.96718667641613	258.41713991113386	-501.4657286122306	344.964272279103	30.04074779310665	-559.5805235142288	367.3360785428024	28.606988712780726	-540.1277492855655	305.75927226559276	55.774533124678165	-499.3035089650282	341.879762590962	57.10899052752767	-481.8881733383091	369.1324995172164	39.24021186396197	-466.1036607748638	-156.61730999894846	29.066048487352177	-530.6634286509271	-179.70175698095156	55.31263597483361	-424.5983701777795	-171.5378059109928	26.979673499161258	-522.9029581927172	-138.28980208318518	31.58883388959941	-539.5471675654069	-147.7583420797022	45.57006820422274	-480.59813287797834	-119.09624849495545	61.11450846360774	-450.1524748828827	
